<svg width="48" height="48" viewBox="0 0 48 48" fill="none" xmlns="http://www.w3.org/2000/svg">
<g clip-path="url(#clip0_649_360)">
<path d="M7.47375 10.1472L0.0585 17.5722L11.4945 29.0435L0 40.5717L7.39313 48.0016L18.9113 36.4688L30.3664 47.918L37.7827 40.493L7.47375 10.1472Z" fill="#53B9FF"/>
<path d="M26.3466 29.0437L18.9111 36.4687L30.3663 47.9178L37.7826 40.4928L26.3466 29.0437Z" fill="#119EFF"/>
<path d="M26.3466 29.0437L18.9111 36.4687L21.7735 39.315L26.3466 29.0437Z" fill="black" fill-opacity="0.2"/>
<path d="M36.4822 18.9345L48.0003 7.40175L40.581 0L29.0673 11.5091L17.6092 0.0585L10.1943 7.48388L40.5018 37.8296L47.9182 30.4046L36.4822 18.9345Z" fill="#53B9FF"/>
<path d="M21.6303 18.9345L29.0658 11.5095L17.6092 0.0581055L10.1943 7.48386L21.6303 18.9345Z" fill="#119EFF"/>
<path d="M21.6299 18.9346L29.0654 11.5096L26.203 8.66187L21.6299 18.9346Z" fill="black" fill-opacity="0.2"/>
</g>
<defs>
<clipPath id="clip0_649_360">
<rect width="48" height="48" fill="white"/>
</clipPath>
</defs>
</svg>
