<svg width="48" height="46" viewBox="0 0 48 46" fill="none" xmlns="http://www.w3.org/2000/svg">
<path d="M43.632 45.84H35.856L36.408 39.288H32.592L32.04 45.84H15.96L15.408 39.288H11.592L12.144 45.84H4.368L0 17.472L10.92 0H37.08L48 17.472L43.632 45.84ZM34.92 8.736H27.888L28.368 12H19.632L20.112 8.736H13.08L8.736 17.472L10.92 34.92H37.08L39.264 17.472L34.92 8.736ZM31.08 29.136C30.48 29.136 30 27.312 30 25.08C30 22.824 30.48 21 31.08 21C31.704 21 32.184 22.824 32.184 25.08C32.184 27.312 31.704 29.136 31.08 29.136ZM17.328 29.472C16.704 29.472 16.224 27.648 16.224 25.416C16.224 23.16 16.704 21.36 17.328 21.36C17.928 21.36 18.408 23.16 18.408 25.416C18.408 27.648 17.928 29.472 17.328 29.472Z" fill="white"/>
</svg>
