<svg width="48" height="49" viewBox="0 0 48 49" fill="none" xmlns="http://www.w3.org/2000/svg">
<path d="M8.8524 41.614L5.4834 3.8125H42.5154L39.1419 41.608L23.9769 45.8125L8.8524 41.614Z" fill="#1572B6"/>
<path d="M24 42.5996L36.255 39.2021L39.138 6.90405H24V42.5996Z" fill="#33A9DC"/>
<path d="M24 20.5991H30.135L30.558 15.8516H24V11.2151H35.625L35.514 12.4586L34.3755 25.2356H24V20.5991Z" fill="white"/>
<path d="M24.0289 32.6395L24.0079 32.6455L18.8449 31.2505L18.5149 27.553H13.8604L14.5099 34.8325L24.0064 37.4695L24.0289 37.4635V32.6395Z" fill="#EBEBEB"/>
<path d="M29.7402 25.0391L29.1822 31.2476L24.0117 32.6426V37.4666L33.5157 34.8326L33.5862 34.0496L34.3917 25.0391H29.7402Z" fill="white"/>
<path d="M24.0168 11.2151V15.8516H12.8178L12.7248 14.8091L12.5133 12.4586L12.4023 11.2151H24.0168ZM24.0003 20.5991V25.2356H18.9018L18.8088 24.1931L18.5988 21.8426L18.4878 20.5991H24.0003Z" fill="#EBEBEB"/>
</svg>
