<svg width="48" height="49" viewBox="0 0 48 49" fill="none" xmlns="http://www.w3.org/2000/svg">
<path d="M8.85292 41.614L5.48242 3.8125H42.5174L39.1424 41.608L23.9774 45.8125L8.85292 41.614Z" fill="#E44F26"/>
<path d="M24 42.5996L36.255 39.2021L39.138 6.90405H24V42.5996Z" fill="#F1662A"/>
<path d="M24 20.9231H17.865L17.442 16.1756H24V11.5391H12.375L12.486 12.7841L13.6245 25.5596H24V20.9231ZM24 32.9636L23.979 32.9696L18.816 31.5761L18.486 27.8786H13.8315L14.481 35.1566L23.979 37.7936L24 37.7876V32.9636Z" fill="#EBEBEB"/>
<path d="M23.9834 20.9231V25.5596H29.6924L29.1554 31.5731L23.9834 32.9681V37.7921L33.4889 35.1566L33.5579 34.3736L34.6469 22.1681L34.7609 20.9231H33.5114H23.9834ZM23.9834 11.5391V16.1756H35.1824L35.2754 15.1346L35.4869 12.7841L35.5979 11.5391H23.9834Z" fill="white"/>
</svg>
