<svg width="48" height="48" viewBox="0 0 48 48" fill="none" xmlns="http://www.w3.org/2000/svg">
<g clip-path="url(#clip0_649_358)">
<path d="M24.0285 0.000220649C27.9242 0.000220649 31.5922 0.910346 35.0332 2.67341L35.4881 2.90103L35.0901 3.21378C34.1233 3.9816 33.3555 4.97685 32.8719 6.11422L32.7298 6.42697L32.4456 6.28484C29.8009 5.03366 26.9857 4.37966 24.0568 4.37966C13.2227 4.37966 4.43606 13.1948 4.43606 24.0004C4.43606 34.806 13.1942 43.6213 24.0285 43.6213C34.8626 43.6213 43.6493 34.8062 43.6493 24.0004C43.6493 21.4129 43.1659 18.882 42.1421 16.4933L42 16.1805L42.3128 16.0384C43.4786 15.6118 44.5024 14.901 45.327 13.9909L45.6398 13.5928L45.8389 14.0479C47.2892 17.2043 48 20.5598 48 23.9436C48 37.1663 37.2227 47.9436 24 47.9436C10.7773 47.9436 0 37.1663 0 23.9438C0 10.7213 10.7773 -0.0562168 24.0285 0.000220649ZM24.0285 13.081C30.0285 13.081 34.9479 17.9721 34.9762 24.0289C34.9762 30.0857 30.0853 34.9768 24.0285 34.9768C17.9715 34.9768 13.0806 30.0857 13.0806 24.0289C13.0806 17.9721 18 13.081 24.0285 13.081ZM39.6968 4.03841C42.4607 4.03841 44.7015 6.27903 44.7015 9.04316C44.7015 11.8071 42.4609 14.0479 39.6968 14.0479C36.9326 14.0479 34.692 11.8073 34.692 9.04316C34.692 6.27903 36.9326 4.03841 39.6968 4.03841Z" fill="#3880FF"/>
</g>
<defs>
<clipPath id="clip0_649_358">
<rect width="48" height="48" fill="white"/>
</clipPath>
</defs>
</svg>
