<svg width="48" height="49" viewBox="0 0 48 49" fill="none" xmlns="http://www.w3.org/2000/svg">
<g clip-path="url(#clip0_649_399)">
<path d="M0 0.8125H48V48.8125H0V0.8125Z" fill="#F7DF1E"/>
<path d="M12.6213 40.9249L16.2944 38.7019C17.0032 39.9583 17.6478 41.0214 19.1941 41.0214C20.6763 41.0214 21.611 40.4417 21.611 38.1864V22.8493H26.1217V38.2502C26.1217 42.9221 23.383 45.0487 19.3874 45.0487C15.779 45.0487 13.6844 43.1799 12.6211 40.9245M28.5717 40.4415L32.2445 38.3151C33.2114 39.894 34.468 41.0539 36.691 41.0539C38.5602 41.0539 39.752 40.1194 39.752 38.8305C39.752 37.284 38.5276 36.7361 36.4655 35.8342L35.338 35.3505C32.0836 33.9654 29.9249 32.2254 29.9249 28.5523C29.9249 25.1691 32.5025 22.5913 36.5302 22.5913C39.3978 22.5913 41.4599 23.5903 42.9419 26.2001L39.4297 28.4557C38.6562 27.0703 37.8188 26.5226 36.53 26.5226C35.2088 26.5226 34.3711 27.3604 34.3711 28.4557C34.3711 29.8089 35.2088 30.357 37.142 31.1947L38.2696 31.6779C42.104 33.3214 44.2627 34.9967 44.2627 38.7662C44.2627 42.8263 41.0729 45.0493 36.7876 45.0493C32.599 45.0493 29.8925 43.0517 28.5715 40.4417" fill="black"/>
</g>
<defs>
<clipPath id="clip0_649_399">
<rect width="48" height="48" fill="white" transform="translate(0 0.8125)"/>
</clipPath>
</defs>
</svg>
