<?xml version="1.0" encoding="utf-8"?>
<!-- Generator: Adobe Illustrator 25.0.0, SVG Export Plug-In . SVG Version: 6.00 Build 0)  -->
<svg version="1.1" id="Ebene_1" xmlns="http://www.w3.org/2000/svg" xmlns:xlink="http://www.w3.org/1999/xlink" x="0px" y="0px"
	 viewBox="0 0 67 67" enable-background="new 0 0 67 67" xml:space="preserve">
<path fill-rule="evenodd" clip-rule="evenodd" fill="#FF285A" d="M50.99,0C60.63,0,67,6.23,67,16.01v34.98
	C67,60.77,60.63,67,50.99,67H16.01C6.37,67,0,60.77,0,50.99V16.01C0,6.23,6.37,0,16.01,0H50.99z"/>
<path fill="#FFFFFF" d="M24.52,48.46c0-2.04,0.78-3.94,2.24-5.4c1.51-1.51,3.45-2.24,5.4-2.24c1.95,0,3.94,0.73,5.4,2.24
	c2.97,2.97,2.97,7.83,0,10.8c-1.46,1.46-3.36,2.24-5.4,2.24s-3.94-0.78-5.4-2.24C25.3,52.45,24.52,50.51,24.52,48.46z M24.91,41.26
	c-1.95,1.95-3.02,4.53-3.02,7.25c0,2.72,1.07,5.3,3.02,7.25c1.95,1.95,4.52,3.02,7.25,3.02s5.3-1.07,7.25-3.02
	c3.99-3.99,3.99-10.46,0-14.45C35.42,37.32,28.9,37.27,24.91,41.26z M23.6,26.52c-1.8-1.8-4.14-2.77-6.67-2.77s-4.87,0.97-6.67,2.77
	c-1.8,1.8-2.77,4.14-2.77,6.67c0,2.53,0.97,4.87,2.77,6.67l6.67,6.67l1.85-1.8L12.12,38c-1.31-1.31-1.99-3.02-1.99-4.82
	c0-1.85,0.73-3.55,1.99-4.82c1.31-1.31,3.02-1.99,4.82-1.99c1.85,0,3.55,0.73,4.82,1.99l6.67,6.67l1.85-1.8L23.6,26.52z M26.57,21.7
	c-1.85-2.87-1.56-6.81,1.02-9.34c1.41-1.41,3.31-2.19,5.3-2.19c1.46,0,2.87,0.44,4.04,1.17L26.57,21.7z M32.84,25.11
	c-1.65,0-3.26-0.54-4.53-1.51l10.46-10.46l1.85-1.85c-0.19-0.24-0.44-0.49-0.68-0.73c-1.9-1.9-4.43-2.97-7.1-2.97
	c-2.68,0-5.21,1.07-7.1,2.97c-3.94,3.94-3.94,10.32,0,14.21c1.9,1.9,4.43,2.97,7.1,2.97c2.68,0,5.21-1.02,7.1-2.97
	c1.9-1.9,2.92-4.48,2.92-7.1h-2.58c0,1.99-0.78,3.84-2.19,5.3C36.74,24.33,34.84,25.11,32.84,25.11z M60.92,33.09l-6.67-6.67
	c-1.8-1.8-4.14-2.77-6.67-2.77c-2.53,0-4.87,0.97-6.67,2.77c-3.65,3.65-3.65,9.63,0,13.33l6.67,6.67l1.85-1.85l-6.67-6.67
	c-2.68-2.68-2.68-7.01,0-9.68c1.31-1.31,3.02-1.99,4.82-1.99c1.85,0,3.55,0.73,4.82,1.99l6.67,6.67L60.92,33.09z"/>
</svg>
