<svg width="48" height="49" viewBox="0 0 48 49" fill="none" xmlns="http://www.w3.org/2000/svg">
<path d="M24.2567 28.8625C23.5352 29.194 22.7447 29.626 21.1622 30.4945C20.5622 30.832 19.9352 31.1695 19.3517 31.4875C19.3112 31.447 19.2692 31.396 19.2287 31.354C16.0982 28.009 10.3082 25.6465 10.5542 21.154C10.6457 19.5175 11.2082 15.2215 21.6737 10.0045C30.2867 5.75951 37.1402 6.93551 38.3237 9.54401C40.0247 13.2625 34.6502 20.182 25.7552 21.1855C24.7707 21.3852 23.754 21.3611 22.7801 21.1149C21.8062 20.8688 20.9001 20.4069 20.1287 19.7635C19.6577 19.252 19.5872 19.222 19.4132 19.324C19.1267 19.474 19.3112 19.9375 19.4132 20.203C19.7525 20.8173 20.2115 21.3574 20.7631 21.7913C21.3147 22.2251 21.9477 22.544 22.6247 22.729C26.1251 23.4856 29.7747 23.1241 33.0587 21.6955C38.4497 19.609 42.6587 13.8085 41.4257 8.94551C40.1882 4.01501 32.0042 2.38901 24.2612 5.14001C19.4121 6.7741 14.932 9.34647 11.0762 12.7105C6.81019 16.7005 6.13519 20.1685 6.41119 21.6205C7.40419 26.776 14.5112 30.1315 17.3612 32.617C17.2112 32.6995 17.0852 32.767 16.9727 32.8315C15.5507 33.538 10.1297 36.3715 8.77819 39.3685C7.24369 42.7645 9.02419 45.199 10.2002 45.526C11.9724 45.9505 13.833 45.811 15.5221 45.1268C17.2111 44.4427 18.6444 43.2482 19.6217 41.71C20.4516 40.4345 20.9612 38.9775 21.1072 37.4628C21.2532 35.9481 21.0312 34.4205 20.4602 33.01C20.7971 32.7413 21.1564 32.5019 21.5342 32.2945C22.2602 31.8655 22.9517 31.4425 23.5652 31.1155C25.6658 30.1316 27.9581 29.625 30.2777 29.632C35.1467 30.205 36.1082 33.2425 35.9237 34.522C35.8374 34.976 35.6548 35.4062 35.3883 35.7837C35.1218 36.1612 34.7776 36.4772 34.3787 36.7105C34.0412 36.925 33.9287 36.997 33.9587 37.15C33.9992 37.375 34.1627 37.3645 34.4492 37.324C35.1807 37.0928 35.8252 36.6457 36.298 36.0415C36.7708 35.4373 37.0497 34.7042 37.0982 33.9385C37.2482 30.9385 34.3877 27.6475 29.3237 27.6775C27.8074 27.6801 26.3062 27.9792 24.9047 28.558C24.6797 28.651 24.4612 28.751 24.2492 28.858L24.2567 28.8625ZM17.0192 40.621C15.4022 42.3805 13.1522 43.045 12.1802 42.4825C11.1302 41.8825 11.5457 39.28 13.5302 37.4185C14.7055 36.3595 15.9759 35.411 17.3252 34.585C17.5607 34.435 17.9087 34.237 18.3272 33.985L18.4397 33.9235L18.6857 33.7735C19.0396 34.9602 19.0718 36.2196 18.779 37.4228C18.4862 38.626 17.8788 39.7297 17.0192 40.621Z" fill="#CD6799"/>
</svg>
